<svg width="69" height="69" viewBox="0 0 69 69" fill="none" xmlns="http://www.w3.org/2000/svg">
<g clip-path="url(#clip0_82_956)">
<path d="M30.6087 54.0562C30.8512 53.8146 30.9989 53.5247 30.957 53.1382L30.0734 26.517C30.0352 25.8889 29.4701 25.3575 28.8484 25.4059C28.2268 25.4543 27.6925 26.0342 27.7307 26.6623L28.6143 53.2835C28.6525 53.9116 29.2176 54.4429 29.8393 54.3945C30.1729 54.4428 30.5102 54.2495 30.6087 54.0562Z" fill="#444444"/>
<path d="M29.2499 57.2045L29.4129 60.1381C29.4643 60.7344 30.0301 61.2507 30.6385 61.2186C30.9666 61.2718 31.199 61.0481 31.3852 60.915C31.6176 60.6913 31.756 60.4198 31.7063 60.0524L31.5433 57.1189C31.4919 56.5226 30.9261 56.0062 30.3177 56.0383C29.7093 56.0704 29.1985 56.6082 29.2499 57.2045Z" fill="#444444"/>
<path d="M44.0597 0.0337567C43.3403 0.0274812 42.809 0.597453 42.853 1.22033L42.8344 4.09319L40.6761 4.07437L40.6461 1.29684C40.6507 0.578628 40.0786 0.0469152 39.4548 0.0893579C38.7354 0.0830825 38.2041 0.653055 38.248 1.27593L38.2295 4.14879L36.0712 4.12997L36.0412 1.35245C36.1414 0.682946 35.5693 0.151234 34.8499 0.144959C34.226 0.187401 33.7433 0.662029 33.6431 1.33153L33.6731 4.10905L31.5619 4.23429L31.5804 1.36142C31.5365 0.738548 30.9643 0.206835 30.2935 0.105216C29.6697 0.147659 29.1384 0.71763 29.1338 1.43585L29.1638 4.21337L27.0055 4.19454L26.9755 1.41702C26.9801 0.698804 26.408 0.167092 25.6886 0.160817C25.0647 0.20326 24.5335 0.773231 24.5774 1.3961L24.5588 4.26897C21.9194 4.48537 19.8899 6.81397 19.8729 9.44743C19.8481 13.2779 23.8292 13.2648 25.1725 13.2286L27.3793 13.1521L27.4394 18.7071C24.8847 20.6481 23.0449 23.3135 23.0248 26.4258L24.733 59.0017C24.7645 61.5398 25.8039 63.9909 27.5674 65.7301C29.4264 67.5181 31.8183 68.4966 34.3606 68.4709L36.7587 68.4918C39.3966 68.5148 41.8024 67.3387 43.4919 65.6775C45.2299 63.921 46.2046 61.5353 46.1731 58.9972L47.1999 26.2536C47.2092 24.8172 46.7389 23.3765 45.9316 22.1245C45.6478 21.4996 45.0255 21.3026 44.3516 21.6798C43.8219 22.0104 43.673 22.7752 44.0054 23.3048C44.623 24.22 44.9522 25.2284 44.946 26.1861L43.9192 58.9296C43.9415 62.9042 40.7553 66.0846 36.8698 66.1465L34.4717 66.1256C30.4906 66.1387 27.2975 62.9505 27.2752 58.976L25.4714 26.3514C25.4491 22.3768 30.0742 19.2089 33.9597 19.1471L36.3578 19.168C37.9408 19.1339 39.5208 19.5786 41.002 20.4535C41.5757 20.7458 42.3437 20.6567 42.6838 19.9893C42.8295 19.7033 42.8796 19.3685 42.7856 19.0804L42.7286 13.0465L45.1267 13.0675C45.9903 13.0271 48.1486 13.0459 49.4039 11.764C49.9352 11.194 50.3725 10.336 50.3316 9.23427C50.3409 7.79784 49.7734 6.54791 48.7247 5.5332C47.7717 4.56721 46.5757 4.07794 45.2811 4.01877L45.2996 1.1459C45.2071 0.61837 44.6835 -0.00868616 44.0597 0.0337567ZM47.8849 9.3087C47.9289 9.93157 47.9242 10.6498 45.1422 10.6734L32.9104 10.8061C32.575 10.7553 32.238 10.9439 31.9966 11.1812C31.7553 11.4185 31.6095 11.7046 31.655 12.088C31.6504 12.8063 32.2225 13.338 32.8463 13.2955L40.2334 13.2163L40.3012 17.5743C39.0096 17.0363 37.5723 16.7844 36.229 16.8206L33.831 16.7996C32.4877 16.8358 31.1429 17.1114 29.7966 17.6264L29.7366 12.0713C29.7867 11.7366 29.597 11.3997 29.3588 11.1582C29.1205 10.9167 28.8336 10.7706 28.4496 10.8151L25.0437 10.8812C22.2617 10.9048 22.2663 10.1866 22.2709 9.46835C22.2332 7.88786 23.4885 6.60594 25.023 6.66721L25.7424 6.67349L34.9037 6.65763L39.5087 6.60203L44.1136 6.54642L45.0728 6.55479C46.5603 6.472 47.8472 7.7282 47.8849 9.3087Z" fill="#444444"/>
</g>
<defs>
<clipPath id="clip0_82_956">
<rect width="69" height="69" fill="white"/>
</clipPath>
</defs>
</svg>
