<svg width="69" height="69" viewBox="0 0 69 69" fill="none" xmlns="http://www.w3.org/2000/svg">
<g clip-path="url(#clip0_82_957)">
<path d="M31.1717 50.1616C30.6642 49.737 29.8971 49.6783 29.4726 50.1859C29.048 50.6935 28.9893 51.4605 29.4969 51.8851C30.7837 53.2179 32.5776 53.9723 34.4302 53.9597C34.737 53.9831 35.0555 53.8532 35.3032 53.6407C35.5509 53.4282 35.6569 53.0506 35.6804 52.7437C35.6565 52.0476 35.1607 51.4696 34.4645 51.4935C33.2373 51.3996 32.0335 50.999 31.1717 50.1616Z" fill="#444444"/>
<path d="M27.2857 40.452L27.2766 46.6234C27.3005 47.3196 27.7963 47.8975 28.4925 47.8736C28.7993 47.8971 29.1178 47.7672 29.3656 47.5546C29.6133 47.3421 29.7193 46.9645 29.7428 46.6577L29.7518 40.4864C29.7271 37.7842 31.8973 35.6357 34.5169 35.6817C35.2131 35.6578 35.791 35.162 35.7671 34.4658C35.7432 33.7696 35.2474 33.1916 34.5512 33.2156C30.5392 33.2173 27.2839 36.4401 27.2857 40.452Z" fill="#444444"/>
<path d="M37.5456 0.115592C29.5569 -0.3411 21.6529 4.14631 14.2231 13.5305C13.8811 13.9672 13.8342 14.5808 14.1884 14.9936L23.1858 28.4887C23.5282 29.055 24.3661 29.1962 24.9323 28.8538C25.4986 28.5113 25.6398 27.6735 25.2973 27.1072L16.6307 14.3318C23.5064 6.13967 30.443 2.19548 37.4404 2.49921C41.9717 2.76862 45.9728 4.92624 49.1008 7.40284L44.3849 16.6088C44.0312 17.1989 44.3619 17.9186 44.952 18.2723C45.4713 18.5435 46.0259 18.3544 46.3561 18.0711C46.4387 18.0003 46.5213 17.9294 46.533 17.776L50.9777 9.08939C53.2797 11.2714 54.8971 13.3238 55.6646 14.3855L42.9631 30.1556C41.8419 29.6841 40.5555 29.3543 39.2458 29.3313L32.3074 29.2635C32.3074 29.2635 32.2248 29.3344 32.154 29.2518L24.535 10.8474C24.2752 10.2103 23.6024 9.92738 22.9654 10.1873C22.2457 10.518 22.0336 11.2733 22.2935 11.9103L29.7235 29.7603C28.1425 30.2565 26.774 31.0005 25.5238 32.2165C23.6838 34.0816 22.6465 36.5483 22.6005 39.1679L22.5453 47.9588C22.4993 50.5784 23.4679 53.0441 25.3331 54.8841C25.6873 55.2969 26.124 55.6389 26.5608 55.9809C25.0389 56.7132 24.2489 57.9643 24.2498 59.9703C24.2507 61.9763 24.9594 63.8049 26.3879 65.3029C27.7455 66.7183 29.6102 67.5552 31.6162 67.5544L39.6401 67.5508C41.6461 67.55 43.4865 66.6878 44.8193 65.401C46.2347 64.0434 47.0717 62.1786 46.9999 60.0901C46.976 59.3939 46.4802 58.816 45.784 58.8399C45.0878 58.8638 44.5099 59.3596 44.5338 60.0558C44.476 62.8288 42.3766 65.0599 39.6036 65.0021L31.5797 65.0056C30.2699 64.9826 28.9953 64.4993 28.1453 63.5085C27.2127 62.5885 26.6929 61.3144 26.716 60.0046C26.7507 58.5414 27.2344 58.2698 27.7181 57.9982C28.5911 57.6792 29.9835 57.6314 31.4467 57.6662L39.7774 57.6861C39.7774 57.6861 39.9308 57.6978 40.0133 57.627C42.267 57.4136 44.426 56.4215 46.0891 54.8514C47.929 52.9862 48.9663 50.5196 49.0124 47.9L48.9024 39.2507C48.9484 36.6311 47.9798 34.1654 46.1146 32.3254C45.8312 31.9952 45.4653 31.7357 45.0994 31.4763L58.0721 15.1868C58.4141 14.7501 58.3785 14.2073 58.1777 13.8062C57.8353 13.2399 49.9121 0.829963 37.5456 0.115592ZM46.4362 39.2164L46.3811 48.0073C46.3819 50.0133 45.545 51.878 44.2004 53.3182C42.785 54.6758 41.0272 55.4672 39.1038 55.3972L32.1654 55.3295C30.242 55.2595 28.4481 54.5051 27.008 53.1606C25.6503 51.7452 24.9416 49.9165 24.9407 47.9105L24.9958 39.1196C24.9949 37.1136 25.8319 35.2489 27.1765 33.8087C28.5919 32.4511 30.3497 31.6598 32.2731 31.7297L39.2114 31.7975C41.1348 31.8674 42.9287 32.6218 44.3689 33.9664C45.7265 35.3818 46.4353 37.2104 46.4362 39.2164Z" fill="#444444"/>
<path d="M42.3003 25.7074C42.3828 25.6366 42.4654 25.5658 42.5597 25.3415L44.4696 21.5529C44.8234 20.9628 44.4927 20.2431 43.9025 19.8894C43.3124 19.5357 42.5927 19.8664 42.239 20.4565L40.3291 24.2451C39.9753 24.8353 40.306 25.5549 40.8962 25.9086C41.4155 26.1798 41.9583 26.1442 42.3003 25.7074Z" fill="#444444"/>
</g>
<defs>
<clipPath id="clip0_82_957">
<rect width="69" height="69" fill="white"/>
</clipPath>
</defs>
</svg>
